
<svg version="1.1" id="Layer_1" xmlns="http://www.w3.org/2000/svg" xmlns:xlink="http://www.w3.org/1999/xlink" x="0px"
  y="0px" viewBox="0 0 500 500" style="enable-background:new 0 0 500 500;" xml:space="preserve">
  <style type="text/css">
    .st0 {
      fill-rule: evenodd;
      clip-rule: evenodd;
      fill: #0094D9;
    }

    .st1 {
      fill-rule: evenodd;
      clip-rule: evenodd;
      fill: #7B7978;
    }

    .st2 {
      fill-rule: evenodd;
      clip-rule: evenodd;
      fill: #231F20;
    }

    .st3 {
      fill-rule: evenodd;
      clip-rule: evenodd;
      fill: #00B0E0;
    }

    .st4 {
      fill-rule: evenodd;
      clip-rule: evenodd;
      fill: #0091D5;
    }

    .st5 {
      fill-rule: evenodd;
      clip-rule: evenodd;
      fill: #00A5DA;
    }

    .st6 {
      fill-rule: evenodd;
      clip-rule: evenodd;
      fill: #0089BF;
    }

    .st7 {
      fill-rule: evenodd;
      clip-rule: evenodd;
      fill: #A2DDF8;
    }

    .st8 {
      fill-rule: evenodd;
      clip-rule: evenodd;
      fill: #00AADB;
    }

    .st9 {
      fill-rule: evenodd;
      clip-rule: evenodd;
      fill: #3B3A3B;
    }

    .st10 {
      fill-rule: evenodd;
      clip-rule: evenodd;
      fill: #130C0E;
    }

    .st11 {
      fill-rule: evenodd;
      clip-rule: evenodd;
      fill: #1E4288;
    }

    .st12 {
      fill-rule: evenodd;
      clip-rule: evenodd;
      fill: #006EB6;
    }
  </style>
  <g>
    <path class="st0" d="M243.4,253.8h-2.1v3.8h9.5v-3.8h-2.2v-15.5h-7.7v3.8h2.5V253.8z M242.3,231.9c0,0.6,0.1,1.2,0.4,1.7
		c0.3,0.5,0.7,0.9,1.2,1.1c0.5,0.3,1.1,0.4,1.8,0.4c0.7,0,1.3-0.1,1.8-0.4c0.5-0.3,0.9-0.6,1.2-1.1c0.3-0.5,0.4-1,0.4-1.7
		c0-0.6-0.1-1.2-0.4-1.7c-0.3-0.5-0.7-0.9-1.2-1.1c-0.5-0.3-1.1-0.4-1.8-0.4c-0.7,0-1.3,0.1-1.8,0.4c-0.5,0.3-0.9,0.6-1.2,1.1
		C242.4,230.7,242.3,231.3,242.3,231.9" />
    <path class="st1" d="M302.7,253.8h-2.1v3.8h9.5v-3.8h-2.2v-15.5h-7.7v3.8h2.5V253.8z M301.7,231.9c0,0.6,0.1,1.2,0.4,1.7
		c0.3,0.5,0.7,0.9,1.2,1.1c0.5,0.3,1.1,0.4,1.8,0.4c0.7,0,1.3-0.1,1.8-0.4c0.5-0.3,0.9-0.6,1.2-1.1c0.3-0.5,0.4-1,0.4-1.7
		c0-0.6-0.1-1.2-0.4-1.7c-0.3-0.5-0.7-0.9-1.2-1.1c-0.5-0.3-1.1-0.4-1.8-0.4c-0.7,0-1.3,0.1-1.8,0.4c-0.5,0.3-0.9,0.6-1.2,1.1
		C301.8,230.7,301.7,231.3,301.7,231.9" />
    <path class="st0" d="M182.2,253.8h-2.5v3.8h11.5c1.4,0,2.7-0.1,3.7-0.4c1.1-0.3,2-0.6,2.7-1.1c0.8-0.5,1.4-1,1.8-1.6
		c0.5-0.6,0.8-1.2,1-1.9c0.2-0.7,0.3-1.4,0.3-2c0-1.1-0.2-2-0.6-2.8c-0.4-0.8-0.9-1.5-1.5-2c-0.6-0.5-1.4-0.9-2.2-1.2
		c-0.8-0.3-1.7-0.4-2.6-0.4V244c0.4,0,0.8-0.1,1.3-0.2c0.5-0.1,0.9-0.4,1.4-0.6c0.5-0.3,0.9-0.7,1.3-1.1c0.4-0.5,0.7-1,0.9-1.6
		c0.2-0.6,0.4-1.4,0.4-2.2c0-0.9-0.1-1.7-0.4-2.3c-0.3-0.7-0.6-1.2-1-1.7c-0.4-0.5-0.8-0.8-1.3-1.1c-0.5-0.3-1.1-0.6-1.8-0.8
		c-0.7-0.2-1.4-0.3-2.3-0.3c-0.9-0.1-1.9-0.1-3.1-0.1l-9.9,0v3.8h2.8V253.8z M187.6,235.6h2.6c1.3,0,2.3,0.3,2.9,0.8
		c0.7,0.5,1,1.4,1,2.4c0,0.8-0.2,1.4-0.5,1.9c-0.4,0.5-0.8,0.9-1.4,1.2c-0.6,0.3-1.3,0.4-2,0.4h-2.5V235.6z M187.6,246.5h3.1
		c0.9,0,1.7,0.2,2.3,0.5c0.6,0.3,1.1,0.7,1.4,1.3c0.3,0.5,0.5,1.1,0.5,1.8c0,0.7-0.2,1.3-0.5,1.9c-0.3,0.6-0.8,1-1.5,1.4
		c-0.7,0.3-1.5,0.5-2.6,0.5h-2.9V246.5z" />
    <path class="st0" d="M206.1,253.8H204v3.8h9.7v-3.8h-2.4v-6.2c0-1.1,0.2-2,0.6-2.7c0.4-0.8,1-1.3,1.7-1.7c0.7-0.4,1.5-0.6,2.5-0.6
		c0.3,0,0.5,0,0.8,0c0.3,0,0.6,0.1,0.8,0.1l0.3-4.6c-0.3-0.1-0.5-0.1-0.8-0.2c-0.3,0-0.6-0.1-0.9-0.1c-1.5,0-2.7,0.4-3.6,1.2
		c-0.9,0.8-1.6,2-1.9,3.6h-0.1c0.1-0.6,0.2-1.1,0.2-1.7c0-0.5,0.1-1,0.1-1.4c0-0.4,0-0.9,0-1.3h-7.5v3.8h2.5V253.8z" />
    <path class="st0" d="M231.7,246.2c-1.9,0-3.5,0.1-4.8,0.2c-1.4,0.1-2.5,0.4-3.5,0.7c-0.7,0.2-1.3,0.6-1.9,1.1
		c-0.6,0.5-1.1,1.1-1.4,1.8c-0.4,0.7-0.5,1.5-0.6,2.4c0,0.8,0.1,1.5,0.4,2.2c0.3,0.7,0.7,1.3,1.2,1.8c0.5,0.5,1.2,0.9,2,1.2
		c0.8,0.3,1.8,0.4,2.8,0.4c1.1,0,2-0.2,2.8-0.5c0.8-0.3,1.5-0.8,2-1.4c0.6-0.6,1.1-1.4,1.5-2.4h0.1c-0.1,0.2-0.1,0.5-0.1,0.7
		c0,0.3-0.1,0.5-0.1,0.8c0,0.3,0,0.7,0,1.1v1.2h6.5v-3.8h-2.2c0-0.9,0.1-1.8,0.1-2.7c0-0.9,0.1-1.8,0.1-2.8c0-1,0-2,0-3
		c0-1.4-0.2-2.6-0.6-3.5c-0.4-1-1-1.7-1.7-2.3c-0.7-0.6-1.6-1-2.7-1.2c-1-0.3-2.2-0.4-3.5-0.4c-0.9,0-1.7,0.1-2.5,0.2
		c-0.8,0.1-1.5,0.3-2.2,0.5c-0.7,0.2-1.3,0.4-1.8,0.7c-0.5,0.2-0.9,0.4-1.3,0.6v4.9h4.4v-2.6c0.3-0.1,0.7-0.2,1.1-0.3
		c0.4-0.1,0.8-0.1,1.2-0.2c0.4,0,0.7-0.1,1-0.1c0.8,0,1.5,0.1,2,0.3c0.5,0.2,0.9,0.6,1.2,1.1c0.3,0.5,0.4,1.3,0.4,2.2V246.2z
		 M231.6,249.4c0,0.9-0.1,1.6-0.4,2.3c-0.2,0.6-0.5,1.1-0.9,1.5c-0.4,0.4-0.8,0.7-1.3,0.8c-0.5,0.2-1,0.3-1.5,0.3
		c-0.7,0-1.2-0.1-1.6-0.3c-0.4-0.2-0.7-0.5-0.9-0.9c-0.2-0.4-0.3-0.7-0.3-1.1c0-0.6,0.2-1,0.5-1.4c0.3-0.4,0.9-0.7,1.7-0.9
		c0.8-0.2,1.9-0.3,3.3-0.3H231.6z" />
    <path class="st0" d="M255.6,253.8h-1.9v3.8h9.3v-3.8h-2.2v-6.4c0-1,0.2-1.9,0.5-2.6c0.3-0.8,0.8-1.4,1.5-1.8
		c0.7-0.4,1.5-0.7,2.6-0.7c0.7,0,1.2,0.1,1.7,0.3c0.5,0.2,0.9,0.6,1.2,1.1c0.3,0.5,0.4,1.2,0.4,2.1v7.9h-2.1v3.8h9.5v-3.8h-2.2v-8.4
		c0-1.5-0.2-2.9-0.7-4c-0.5-1.1-1.2-2-2.2-2.6c-1-0.6-2.2-0.9-3.8-0.9c-1.1,0-2.1,0.2-3,0.6c-0.9,0.4-1.6,0.9-2.2,1.6
		c-0.6,0.7-1.1,1.4-1.4,2.3h-0.1c0.1-0.7,0.2-1.4,0.3-2c0-0.6,0-1.3,0-2h-7.6v3.8h2.5V253.8z" />
    <path class="st1" d="M290.3,242.1h2.2l-3.4,9.5c-0.1,0.2-0.2,0.5-0.2,0.7c-0.1,0.2-0.1,0.5-0.1,0.9h-0.1c0-0.3-0.1-0.6-0.1-0.9
		c-0.1-0.3-0.1-0.5-0.2-0.7l-3.5-9.5h1.8v-3.8H277v3.8h1.8l6.7,15.5h5.6l6.6-15.5h1.8v-3.8h-9.2V242.1z" />
    <path class="st1" d="M315.3,253.8h-2.1v3.8h9.7v-3.8h-2.4v-6.2c0-1.1,0.2-2,0.6-2.7c0.4-0.8,1-1.3,1.7-1.7c0.7-0.4,1.5-0.6,2.5-0.6
		c0.3,0,0.5,0,0.8,0c0.3,0,0.6,0.1,0.8,0.1l0.3-4.6c-0.3-0.1-0.5-0.1-0.8-0.2c-0.3,0-0.6-0.1-0.9-0.1c-1.5,0-2.7,0.4-3.6,1.2
		c-0.9,0.8-1.6,2-1.9,3.6h-0.1c0.1-0.6,0.2-1.1,0.2-1.7c0-0.5,0.1-1,0.1-1.4c0-0.4,0-0.9,0-1.3h-7.5v3.8h2.5V253.8z" />
    <path class="st1"
      d="M347.3,249.1c0-1.6-0.2-3-0.5-4.4c-0.4-1.4-0.9-2.5-1.7-3.6c-0.7-1-1.7-1.8-2.9-2.4c-1.2-0.6-2.6-0.9-4.3-0.9
		c-1.5,0-2.9,0.3-4.1,0.7c-1.2,0.5-2.2,1.2-3,2.1c-0.8,0.9-1.5,2-1.9,3.2c-0.4,1.2-0.7,2.6-0.7,4.1c0,1.1,0.1,2.1,0.4,3.1
		c0.3,1,0.7,1.9,1.2,2.7c0.5,0.8,1.2,1.6,2.1,2.2c0.8,0.6,1.8,1.1,3,1.5c1.1,0.3,2.5,0.5,4,0.5c0.9,0,1.7,0,2.5-0.1
		c0.8-0.1,1.6-0.2,2.3-0.4c0.8-0.2,1.5-0.4,2.3-0.7l0.3-4.1c-0.7,0.3-1.4,0.6-2,0.8c-0.6,0.2-1.3,0.3-2,0.4
		c-0.7,0.1-1.4,0.1-2.2,0.1c-1.2,0-2.3-0.2-3.2-0.6c-0.9-0.4-1.6-1-2.1-1.7c-0.5-0.7-0.8-1.6-0.8-2.6H347.3z M333.8,245.6
		c0.1-1.3,0.5-2.3,1.2-3.1c0.7-0.7,1.6-1.1,2.8-1.1c0.8,0,1.5,0.2,2.1,0.5c0.6,0.3,1,0.8,1.4,1.4c0.3,0.6,0.5,1.4,0.5,2.3H333.8z" />
    <path class="st2" d="M241.1,268.8l0.1-0.6c0.2,0.1,0.3,0.2,0.4,0.2c0.1,0.1,0.3,0.1,0.5,0.2c0.2,0.1,0.5,0.1,0.7,0.1
		c0.3,0,0.5,0,0.7-0.1c0.2,0,0.4-0.1,0.5-0.2c0.1-0.1,0.3-0.2,0.3-0.4c0.1-0.2,0.1-0.4,0.1-0.6c0-0.2,0-0.3-0.1-0.4
		c0-0.1-0.1-0.2-0.2-0.3c-0.1-0.1-0.2-0.2-0.3-0.2c-0.1-0.1-0.3-0.1-0.4-0.2l-1.2-0.4c-0.3-0.1-0.5-0.2-0.7-0.3
		c-0.2-0.1-0.3-0.3-0.4-0.4c-0.1-0.1-0.2-0.3-0.2-0.4c0-0.1-0.1-0.3-0.1-0.5c0-0.2,0-0.5,0.1-0.6c0.1-0.2,0.2-0.3,0.4-0.5
		c0.1-0.1,0.3-0.2,0.5-0.3c0.2-0.1,0.4-0.1,0.5-0.2c0.2,0,0.3,0,0.5,0c0.7,0,1.4,0.2,2,0.5l-0.1,0.6c-0.2-0.1-0.4-0.2-0.7-0.3
		c-0.3-0.1-0.6-0.2-0.9-0.2c-0.3,0-0.5,0-0.7,0.1c-0.2,0-0.4,0.1-0.5,0.2c-0.1,0.1-0.2,0.2-0.2,0.3c0,0.1-0.1,0.3-0.1,0.4
		c0,0.2,0.1,0.4,0.2,0.6c0.1,0.1,0.4,0.3,0.7,0.4l1.1,0.4c0.1,0,0.2,0.1,0.3,0.1c0.1,0,0.2,0.1,0.3,0.1c0.1,0.1,0.2,0.1,0.3,0.2
		c0.1,0.1,0.2,0.1,0.3,0.2c0.1,0.1,0.2,0.2,0.2,0.3c0.1,0.1,0.1,0.2,0.1,0.4c0,0.2,0.1,0.3,0.1,0.5c0,0.1,0,0.2,0,0.3s0,0.2-0.1,0.4
		c0,0.1-0.1,0.2-0.2,0.4c-0.1,0.1-0.2,0.2-0.3,0.3c-0.1,0.1-0.3,0.2-0.4,0.3c-0.2,0.1-0.3,0.1-0.6,0.2c-0.2,0-0.5,0.1-0.7,0.1
		c-0.4,0-0.7,0-1-0.1C241.6,269,241.3,268.9,241.1,268.8 M250.6,266.1c0-0.5-0.1-0.8-0.2-1c-0.2-0.2-0.4-0.3-0.7-0.3
		c-0.2,0-0.4,0-0.5,0.1c-0.2,0.1-0.3,0.1-0.5,0.2c-0.1,0.1-0.2,0.1-0.3,0.2c-0.1,0.1-0.1,0.1-0.2,0.2v3.6h-0.8v-6.4l0.8-0.1v2.5
		c0.1-0.1,0.2-0.2,0.3-0.3c0.1-0.1,0.2-0.2,0.3-0.2c0.1-0.1,0.3-0.2,0.4-0.2c0.2,0,0.3-0.1,0.5-0.1c0.3,0,0.5,0,0.7,0.1
		c0.2,0.1,0.4,0.2,0.5,0.3c0.2,0.1,0.3,0.3,0.4,0.6c0.1,0.2,0.1,0.5,0.1,0.9v2.9h-0.8V266.1z M255.2,268.6c0.5,0,0.9-0.2,1.4-0.6
		v-1.2c-0.3-0.1-0.7-0.1-1-0.1c-0.3,0-0.5,0-0.7,0.1c-0.2,0-0.3,0.1-0.4,0.2c-0.2,0.2-0.3,0.4-0.3,0.7c0,0.3,0.1,0.6,0.2,0.7
		C254.6,268.5,254.8,268.6,255.2,268.6 M256.5,266.3v-0.2c0-0.3,0-0.5,0-0.6c0-0.2-0.1-0.3-0.2-0.4c-0.1-0.1-0.2-0.2-0.3-0.2
		c-0.1,0-0.3-0.1-0.5-0.1s-0.4,0-0.5,0.1c-0.2,0-0.3,0.1-0.4,0.1c-0.1,0-0.2,0.1-0.3,0.1c-0.2,0.1-0.3,0.1-0.3,0.2l-0.3-0.5l0.2-0.1
		c0.5-0.3,1-0.4,1.5-0.4c0.7,0,1.2,0.2,1.5,0.5c0.3,0.3,0.4,0.8,0.4,1.6v2.8h-0.6l-0.1-0.7c-0.4,0.5-0.9,0.8-1.6,0.8
		c-0.5,0-0.9-0.1-1.2-0.4c-0.3-0.2-0.4-0.6-0.4-1.1v0c0-0.5,0.2-0.8,0.5-1.1c0.3-0.3,0.8-0.4,1.3-0.4c0.2,0,0.4,0,0.7,0.1
		C256.2,266.2,256.4,266.3,256.5,266.3 M262,269.1c-0.3,0-0.6-0.1-0.8-0.2c-0.3-0.1-0.5-0.3-0.6-0.5v2.5l-0.8,0.1v-6.7h0.6l0.1,0.8
		c0.2-0.2,0.4-0.4,0.7-0.6c0.3-0.2,0.5-0.3,0.8-0.3c0.2,0,0.4,0,0.6,0.1c0.2,0.1,0.3,0.1,0.5,0.2c0.1,0.1,0.2,0.2,0.3,0.3
		c0.1,0.1,0.2,0.3,0.2,0.4c0.1,0.1,0.1,0.3,0.2,0.5c0,0.2,0.1,0.3,0.1,0.5c0,0.2,0,0.3,0,0.5c0,0.3,0,0.5-0.1,0.7
		c0,0.2-0.1,0.5-0.2,0.7c-0.1,0.2-0.2,0.4-0.4,0.5c-0.1,0.2-0.3,0.3-0.5,0.4C262.5,269.1,262.2,269.1,262,269.1 M263.1,266.9
		c0-0.2,0-0.4,0-0.5c0-0.2,0-0.3-0.1-0.5c-0.1-0.2-0.1-0.4-0.2-0.5c-0.1-0.1-0.2-0.2-0.3-0.3c-0.1-0.1-0.3-0.1-0.5-0.1
		c-0.2,0-0.3,0-0.5,0.1c-0.2,0.1-0.3,0.1-0.4,0.2c-0.1,0.1-0.2,0.1-0.3,0.2c-0.1,0.1-0.1,0.1-0.2,0.1v2.4c0,0,0.1,0.1,0.1,0.1
		c0.1,0.1,0.2,0.1,0.3,0.2c0.1,0.1,0.3,0.2,0.4,0.2s0.3,0.1,0.5,0.1c0.1,0,0.2,0,0.2,0c0.1,0,0.1,0,0.2-0.1c0.1,0,0.2-0.1,0.3-0.1
		c0.1-0.1,0.1-0.1,0.2-0.3c0.1-0.1,0.1-0.3,0.2-0.4C263.1,267.4,263.1,267.1,263.1,266.9 M267,269h-0.7v-4.7h0.7V269z M266.7,262.7
		c0.1,0,0.2,0,0.3,0.1c0.1,0.1,0.1,0.2,0.1,0.3c0,0.1,0,0.2-0.1,0.3c-0.1,0.1-0.2,0.1-0.3,0.1c-0.1,0-0.2,0-0.3-0.1
		c-0.1-0.1-0.1-0.2-0.1-0.3c0-0.1,0-0.2,0.1-0.3C266.4,262.7,266.5,262.7,266.7,262.7 M270.5,265.5v3.5h-0.8v-4.7h0.6l0.1,0.8
		c0.2-0.2,0.4-0.4,0.8-0.6c0.3-0.2,0.7-0.3,1-0.3c0.1,0,0.3,0,0.4,0c0.1,0,0.3,0.1,0.4,0.2c0.1,0.1,0.3,0.2,0.4,0.3
		c0.1,0.1,0.2,0.3,0.3,0.5c0.1,0.2,0.1,0.5,0.1,0.8v2.9h-0.8v-2.9c0-0.2,0-0.4,0-0.5c0-0.2-0.1-0.3-0.1-0.4
		c-0.1-0.1-0.2-0.2-0.3-0.3c-0.1-0.1-0.3-0.1-0.4-0.1c-0.3,0-0.6,0.1-0.9,0.2C270.8,265.2,270.6,265.4,270.5,265.5 M276.8,269.4
		c0,0.3,0.1,0.5,0.3,0.6c0.2,0.1,0.5,0.2,0.9,0.2h0.4c0.5,0,0.8-0.1,1-0.2c0.2-0.1,0.3-0.3,0.3-0.6c0-0.3-0.1-0.5-0.3-0.6
		c-0.2-0.1-0.5-0.2-0.9-0.2h-1.3c0,0,0,0,0,0c0,0,0,0-0.1,0.1c0,0.1-0.1,0.1-0.1,0.2c0,0.1-0.1,0.1-0.1,0.2
		C276.8,269.2,276.8,269.3,276.8,269.4 M276.9,265.6c0,0.1,0,0.2,0.1,0.4c0.1,0.1,0.1,0.2,0.2,0.3c0.1,0.1,0.2,0.1,0.2,0.2
		c0.1,0.1,0.1,0.1,0.2,0.1l0.1,0l0.6-0.1c0.1,0,0.3-0.1,0.4-0.1c0.1,0,0.2-0.1,0.2-0.2c0.1-0.1,0.1-0.1,0.1-0.2
		c0-0.1,0.1-0.2,0.1-0.2c0-0.1,0-0.2,0-0.3c0-0.3-0.1-0.5-0.2-0.6c-0.2-0.1-0.4-0.2-0.8-0.2C277.3,264.8,276.9,265.1,276.9,265.6
		 M276.1,267.6c0-0.1,0-0.1,0-0.1c0-0.2,0-0.3,0.1-0.5c0.1-0.1,0.2-0.2,0.5-0.2l0.3-0.1c-0.3-0.1-0.5-0.2-0.6-0.4
		c-0.1-0.2-0.2-0.4-0.2-0.7c0-0.4,0.2-0.7,0.5-1c0.3-0.2,0.8-0.4,1.3-0.4h0c0.1,0,0.3,0,0.4,0c0.1,0,0.2,0,0.3,0.1
		c0.1,0,0.1,0.1,0.2,0.1c0.1,0,0.1,0.1,0.1,0.1l0,0l0.3-0.2c0.1-0.1,0.4-0.1,0.8-0.1h0.1v0.6l-1,0l0.1,0.1c0.1,0.1,0.1,0.2,0.2,0.3
		c0,0.1,0,0.1,0,0.3c0,0.1,0,0.3,0,0.4c0,0.1-0.1,0.2-0.1,0.4c-0.1,0.1-0.1,0.2-0.2,0.3c-0.1,0.1-0.2,0.2-0.4,0.3
		c-0.2,0.1-0.4,0.1-0.6,0.2l-1.7,0.2l0.1,0.7h1.6c0.7,0,1.2,0.1,1.5,0.3c0.3,0.2,0.5,0.6,0.5,1c0,0.4-0.2,0.8-0.6,1.1
		c-0.4,0.2-0.9,0.4-1.5,0.4h-0.3c-0.5,0-1-0.1-1.3-0.3c-0.3-0.2-0.4-0.6-0.4-1c0-0.1,0-0.2,0.1-0.4c0-0.1,0.1-0.2,0.1-0.3
		c0.1-0.1,0.1-0.1,0.2-0.2c0.1,0,0.1-0.1,0.2-0.1c0,0,0.1,0,0.1,0l0,0c-0.1,0-0.2-0.1-0.3-0.1c-0.1,0-0.2-0.1-0.2-0.2
		c-0.1-0.1-0.1-0.2-0.1-0.2C276.2,268,276.2,267.9,276.1,267.6 M284.5,268.6h0.8v-5.4h-0.8v-0.5h2.4v0.5H286v5.4h0.8v0.5h-2.4V268.6
		z M289.1,266.7c0-0.5,0.1-0.9,0.2-1.2c0.1-0.4,0.4-0.7,0.6-0.9c0.3-0.2,0.6-0.3,1-0.3c0.3,0,0.6,0.1,0.9,0.2
		c0.3,0.1,0.5,0.3,0.6,0.4v-2.4l0.8,0.1v6.4h-0.6l-0.1-0.7c-0.2,0.2-0.4,0.4-0.6,0.6c-0.3,0.2-0.5,0.2-0.8,0.2
		c-0.3,0-0.6-0.1-0.9-0.2c-0.3-0.1-0.5-0.3-0.6-0.5c-0.2-0.2-0.3-0.5-0.3-0.8C289.1,267.3,289.1,267,289.1,266.7 M289.8,266.7
		c0,1.2,0.4,1.9,1.2,1.9c0.3,0,0.6-0.1,0.8-0.2c0.3-0.1,0.4-0.3,0.6-0.4v-2.5c-0.5-0.4-1-0.6-1.4-0.6c-0.1,0-0.2,0-0.3,0
		c-0.1,0-0.2,0.1-0.3,0.2c-0.1,0.1-0.2,0.2-0.3,0.3c-0.1,0.1-0.1,0.3-0.2,0.5C289.8,266.1,289.8,266.4,289.8,266.7 M298.4,266.2
		c0-0.2,0-0.4-0.1-0.6c0-0.2-0.1-0.3-0.2-0.4c-0.1-0.1-0.2-0.2-0.3-0.2c-0.1-0.1-0.2-0.1-0.3-0.1c-0.1,0-0.2,0-0.3,0
		c-0.1,0-0.2,0-0.3,0c-0.1,0-0.2,0.1-0.3,0.1c-0.1,0.1-0.2,0.2-0.3,0.3c-0.1,0.1-0.2,0.3-0.2,0.4c-0.1,0.2-0.1,0.4-0.1,0.6h2.4
		V266.2z M296,266.8c0,0.3,0,0.5,0.1,0.7c0,0.2,0.1,0.4,0.2,0.5c0.1,0.2,0.2,0.3,0.4,0.4c0.2,0.1,0.4,0.1,0.7,0.1
		c0.5,0,0.9-0.2,1.2-0.5l0.2,0.6c-0.2,0.2-0.5,0.3-0.8,0.4c-0.3,0.1-0.6,0.1-0.8,0.1c-0.7,0-1.2-0.2-1.6-0.7c-0.4-0.4-0.6-1-0.6-1.8
		c0-0.4,0.1-0.7,0.2-1.1c0.1-0.3,0.3-0.6,0.4-0.8c0.2-0.2,0.4-0.4,0.7-0.5c0.3-0.1,0.5-0.2,0.8-0.2c0.6,0,1,0.2,1.3,0.6
		c0.3,0.4,0.5,0.9,0.5,1.5c0,0.1,0,0.3,0,0.4H296z M302.7,268.6c0.5,0,0.9-0.2,1.4-0.6v-1.2c-0.3-0.1-0.7-0.1-1-0.1
		c-0.3,0-0.5,0-0.7,0.1c-0.2,0-0.3,0.1-0.4,0.2c-0.2,0.2-0.3,0.4-0.3,0.7c0,0.3,0.1,0.6,0.2,0.7
		C302.1,268.5,302.3,268.6,302.7,268.6 M304,266.3v-0.2c0-0.3,0-0.5,0-0.6c0-0.2-0.1-0.3-0.2-0.4c-0.1-0.1-0.2-0.2-0.3-0.2
		c-0.1,0-0.3-0.1-0.5-0.1c-0.2,0-0.3,0-0.5,0.1c-0.2,0-0.3,0.1-0.4,0.1c-0.1,0-0.2,0.1-0.3,0.1c-0.2,0.1-0.3,0.1-0.3,0.2l-0.3-0.5
		l0.2-0.1c0.5-0.3,1-0.4,1.5-0.4c0.7,0,1.2,0.2,1.5,0.5c0.3,0.3,0.4,0.8,0.4,1.6v2.8h-0.6l-0.1-0.7c-0.4,0.5-0.9,0.8-1.6,0.8
		c-0.5,0-0.9-0.1-1.2-0.4c-0.3-0.2-0.4-0.6-0.4-1.1v0c0-0.5,0.2-0.8,0.5-1.1c0.3-0.3,0.8-0.4,1.3-0.4c0.2,0,0.4,0,0.7,0.1
		C303.7,266.2,303.9,266.3,304,266.3 M306.9,268.6l0.3-0.6c0.2,0.1,0.4,0.3,0.6,0.3c0.2,0.1,0.4,0.1,0.6,0.1c0.3,0,0.6-0.1,0.8-0.2
		c0.2-0.1,0.3-0.3,0.3-0.6c0-0.2-0.1-0.4-0.2-0.5c-0.1-0.1-0.3-0.2-0.6-0.3l-0.7-0.2c-0.2-0.1-0.4-0.2-0.6-0.3
		c-0.2-0.1-0.3-0.2-0.4-0.3c-0.1-0.1-0.1-0.2-0.2-0.3c0-0.1,0-0.3,0-0.4c0-0.1,0-0.2,0-0.3c0-0.1,0.1-0.2,0.2-0.3
		c0.1-0.1,0.2-0.2,0.3-0.3c0.1-0.1,0.3-0.2,0.5-0.2c0.2-0.1,0.4-0.1,0.6-0.1c0.3,0,0.6,0.1,0.9,0.2c0.3,0.1,0.5,0.2,0.6,0.3
		l-0.2,0.6c-0.4-0.3-0.8-0.5-1.2-0.5c-0.4,0-0.6,0.1-0.8,0.2c-0.2,0.1-0.2,0.3-0.2,0.5c0,0.1,0,0.2,0.1,0.3c0.1,0.1,0.3,0.2,0.5,0.3
		l0.7,0.2c0.3,0.1,0.5,0.2,0.7,0.3c0.2,0.1,0.3,0.2,0.4,0.4c0.1,0.1,0.1,0.3,0.2,0.4s0,0.3,0,0.4c0,0.2,0,0.4-0.1,0.5
		c-0.1,0.2-0.2,0.3-0.3,0.4c-0.1,0.1-0.2,0.2-0.4,0.2c-0.2,0.1-0.3,0.1-0.5,0.1c-0.2,0-0.3,0-0.5,0c-0.3,0-0.6-0.1-0.9-0.2
		C307.2,268.9,307,268.8,306.9,268.6" />
    <polygon class="st3" points="156.9,234.3 161.6,237 161.6,241.8 156.9,239.2 	" />
    <polygon class="st4" points="152.5,231.8 156.9,234.3 156.9,239.2 152.5,236.6 	" />
    <polygon class="st5" points="152.5,247.1 161.6,241.8 161.6,237 152.5,242.2 	" />
    <polygon class="st6" points="161.6,241.8 161.6,237 157.4,239.4 	" />
    <polygon class="st7" points="156.9,244.5 161.6,241.8 157.4,239.4 156.9,239.7 	" />
    <polygon class="st3" points="156.9,255 161.6,252.3 161.6,247.4 156.9,250.1 	" />
    <polygon class="st6" points="161.6,252.3 161.6,247.4 157.4,249.8 	" />
    <polygon class="st8" points="152.5,257.5 156.9,254.9 156.9,250.1 152.5,252.6 	" />
    <polygon class="st3" points="156.8,244.6 156.9,244.5 156.9,239.7 152.5,242.2 	" />
    <polygon class="st8" points="156.7,244.6 156.9,244.7 156.9,249.6 152.5,247.1 	" />
    <polygon class="st9" points="166.3,239.6 170.8,242.3 166.7,244.6 166.3,244.4 	" />
    <polygon class="st10" points="162,237.2 166.3,239.6 166.3,244.4 162,241.9 	" />
    <polygon class="st9" points="162,252.1 170.8,247 170.8,242.3 162,247.3 	" />
    <polygon class="st10" points="162,252.1 166.3,249.6 166.3,244.9 162,247.3 	" />
    <polygon class="st11" points="152.5,247.1 152.5,242.2 156.8,244.6 	" />
    <polygon class="st12" points="156.8,244.6 156.9,244.7 156.9,249.6 152.5,247.1 	" />
    <polygon class="st3" points="156.9,244.7 161.6,247.4 157.4,249.8 156.9,249.6 	" />
    <polygon class="st4" points="152.5,257.5 156.9,255 156.9,250.1 152.5,252.6 	" />
    <polygon class="st10" points="170.8,247 170.8,242.3 166.7,244.6 	" />
  </g>
</svg>